<svg xmlns="http://www.w3.org/2000/svg" width="1200" height="700" viewBox="0 0 1200 700">
  <defs>
    <style>
      .title { font: 600 20px system-ui, -apple-system, Segoe UI, Roboto, sans-serif; }
      .label { font: 12px system-ui, -apple-system, Segoe UI, Roboto, sans-serif; fill:#111 }
      .legend { font: 12px system-ui, -apple-system, Segoe UI, Roboto, sans-serif; fill:#111 }
      .note { font: 12px system-ui, -apple-system, Segoe UI, Roboto, sans-serif; fill:#444 }
    </style>
    <!-- Sample palette color for Indo-European > Germanic > West Germanic -->
    <linearGradient id="ocean" x1="0" y1="0" x2="0" y2="1">
      <stop offset="0%" stop-color="#b8d8ff"/>
      <stop offset="100%" stop-color="#e3f0ff"/>
    </linearGradient>
  </defs>

  <!-- Background (ocean) -->
  <rect x="0" y="0" width="1200" height="700" fill="url(#ocean)"/>

  <!-- Title -->
  <text x="24" y="36" class="title">Choropleth Mock — Family: Indo-European / Branch: Germanic / Subgroup: West Germanic</text>

  <!-- Simplified world silhouettes (very rough blocks for illustration only) -->
  <!-- North America -->
  <rect x="90" y="140" width="280" height="160" rx="8" fill="#cfcfcf" stroke="#888" stroke-width="1"/>
  <text x="100" y="160" class="label">North America</text>
  <!-- US (highlight) -->
  <rect x="120" y="200" width="150" height="70" rx="6" fill="#1f77b4" fill-opacity="0.75" stroke="#666" stroke-width="1.2"/>
  <text x="130" y="240" class="label" fill="#fff">US</text>
  <!-- Canada (highlight) -->
  <rect x="120" y="170" width="150" height="22" rx="4" fill="#1f77b4" fill-opacity="0.75" stroke="#666" stroke-width="1.2"/>
  <text x="130" y="186" class="label" fill="#fff">CA</text>

  <!-- South America -->
  <rect x="240" y="360" width="150" height="200" rx="8" fill="#cfcfcf" stroke="#888" stroke-width="1"/>
  <text x="250" y="380" class="label">South America</text>
  <!-- Others grey -->

  <!-- Europe -->
  <rect x="600" y="170" width="200" height="140" rx="8" fill="#cfcfcf" stroke="#888" stroke-width="1"/>
  <text x="610" y="190" class="label">Europe</text>
  <!-- UK (highlight) -->
  <rect x="610" y="210" width="30" height="28" rx="4" fill="#1f77b4" fill-opacity="0.75" stroke="#666" stroke-width="1.2"/>
  <text x="616" y="227" class="label" fill="#fff">GB</text>
  <!-- Netherlands (highlight) -->
  <rect x="650" y="225" width="28" height="22" rx="4" fill="#1f77b4" fill-opacity="0.75" stroke="#666" stroke-width="1.2"/>
  <text x="654" y="241" class="label" fill="#fff">NL</text>
  <!-- Germany (highlight) -->
  <rect x="685" y="225" width="38" height="28" rx="4" fill="#1f77b4" fill-opacity="0.75" stroke="#666" stroke-width="1.2"/>
  <text x="692" y="243" class="label" fill="#fff">DE</text>
  <!-- Austria, Switzerland (optional highlights) -->
  <rect x="730" y="255" width="20" height="16" rx="3" fill="#1f77b4" fill-opacity="0.75" stroke="#666" stroke-width="1.2"/>
  <text x="733" y="267" class="label" fill="#fff">AT</text>
  <rect x="705" y="255" width="20" height="16" rx="3" fill="#1f77b4" fill-opacity="0.75" stroke="#666" stroke-width="1.2"/>
  <text x="708" y="267" class="label" fill="#fff">CH</text>

  <!-- Africa -->
  <rect x="650" y="330" width="220" height="240" rx="8" fill="#cfcfcf" stroke="#888" stroke-width="1"/>
  <text x="660" y="350" class="label">Africa</text>

  <!-- Middle East & Central Asia -->
  <rect x="850" y="260" width="190" height="120" rx="8" fill="#cfcfcf" stroke="#888" stroke-width="1"/>
  <text x="860" y="280" class="label">Middle East</text>

  <!-- South Asia -->
  <rect x="920" y="360" width="150" height="120" rx="8" fill="#cfcfcf" stroke="#888" stroke-width="1"/>
  <text x="930" y="380" class="label">South Asia</text>

  <!-- East Asia -->
  <rect x="980" y="220" width="180" height="110" rx="8" fill="#cfcfcf" stroke="#888" stroke-width="1"/>
  <text x="990" y="240" class="label">East Asia</text>

  <!-- Oceania -->
  <rect x="1040" y="420" width="120" height="70" rx="8" fill="#cfcfcf" stroke="#888" stroke-width="1"/>
  <text x="1050" y="440" class="label">Oceania</text>

  <!-- Legend -->
  <g transform="translate(24, 560)">
    <rect x="0" y="0" width="330" height="120" rx="8" fill="#fff" stroke="#ddd"/>
    <text x="14" y="24" class="legend" style="font-weight:600">凡例 / Legend</text>

    <rect x="16" y="40" width="16" height="16" fill="#1f77b4" stroke="#666"/>
    <text x="40" y="52" class="legend">Indo-European → Germanic → West Germanic（英語・ドイツ語・オランダ語 等）</text>

    <rect x="16" y="68" width="16" height="16" fill="#cfcfcf" stroke="#888"/>
    <text x="40" y="80" class="legend">その他（不一致/データなしは淡色）</text>
  </g>

  <!-- Notes -->
  <text x="24" y="86" class="note">図は概念図です。実際はGeoJSON国境に対してData Layerで塗り分けます。</text>
  <text x="24" y="106" class="note">視認性確保のため fillOpacity≈0.7 / stroke≈1.2 を使用予定。</text>
</svg>


